<svg xmlns="http://www.w3.org/2000/svg" width="89.444" height="84.032" viewBox="0 0 89.444 84.032">
  <g id="Outline" transform="translate(-2 -2)">
    <path id="Path_415" data-name="Path 415" d="M89.953,44.153a1.443,1.443,0,0,0-1.491,1.391V59.449A4.33,4.33,0,0,1,83.99,63.62H10.944a5.773,5.773,0,0,1-5.963-5.562V14.953a4.33,4.33,0,0,1,4.472-4.172H34.8a1.443,1.443,0,0,0,1.491-1.391A1.443,1.443,0,0,0,34.8,8H9.454A7.225,7.225,0,0,0,2,14.953V58.058C2,62.664,6.007,66.4,10.944,66.4h18.7A14.162,14.162,0,0,1,21.8,73.368l-3.688,1.377h-2.7a4.33,4.33,0,0,0-4.472,4.172V81.7a1.443,1.443,0,0,0,1.491,1.391H36.287a1.394,1.394,0,1,0,0-2.781H13.926V78.916a1.443,1.443,0,0,1,1.491-1.391H78.027a1.443,1.443,0,0,1,1.491,1.391v1.391H42.25a1.394,1.394,0,1,0,0,2.781H81.009A1.443,1.443,0,0,0,82.5,81.7V78.916a4.33,4.33,0,0,0-4.472-4.172h-2.7l-3.688-1.377A14.162,14.162,0,0,1,63.8,66.4H83.99a7.225,7.225,0,0,0,7.454-6.953V45.544A1.443,1.443,0,0,0,89.953,44.153ZM67.938,74.744H25.506A16.642,16.642,0,0,0,32.888,66.4H60.556A16.642,16.642,0,0,0,67.938,74.744Z" transform="translate(0 2.944)" fill="#f21d1d"/>
    <path id="Path_416" data-name="Path 416" d="M66.815,8H38.491a1.491,1.491,0,0,0,0,2.981H66.815a4.472,4.472,0,0,1,4.472,4.472V42.287a1.491,1.491,0,1,0,2.981,0V15.454A7.463,7.463,0,0,0,66.815,8Z" transform="translate(17.176 2.944)" fill="#f21d1d"/>
    <path id="Path_417" data-name="Path 417" d="M22.057,19.366,18.518,28.8a4.053,4.053,0,0,0,7.27,3.509l2.981-4.969h2.138a1.491,1.491,0,1,0,2.981,0V25.852A1.491,1.491,0,0,0,32.4,24.361H27.926a1.491,1.491,0,0,0-1.277.723l-3.415,5.687a1.072,1.072,0,0,1-1.923-.929l3.236-8.63,7.975-1.324H43.8l7.045,5.636a1.491,1.491,0,0,0,1.143.312l7.091-1.014a1.43,1.43,0,0,1,1.145.338,1.415,1.415,0,0,1,.5,1.087,1.44,1.44,0,0,1-1.26,1.427l-8.849,1.106L45.1,25.469a1.491,1.491,0,0,0-2.264,1.278v5.068H32.4a1.491,1.491,0,0,0-1.47,1.245l-1.321,7.923L23.048,42.25H17.491A1.491,1.491,0,0,0,16,43.741V54.176a1.491,1.491,0,0,0,1.491,1.491,7.454,7.454,0,0,0,6.916-4.709L37.019,49.7a1.491,1.491,0,0,0,1.185-.817l3.8-7.61,3.955,1.975,1.366,8.2A1.491,1.491,0,0,0,48.8,52.685h4.472a4.481,4.481,0,0,1,4.217,2.981H48.8a1.491,1.491,0,0,0,0,2.981H59.231a1.491,1.491,0,0,0,1.491-1.491,7.454,7.454,0,0,0-4.735-6.923L54.75,39.1a1.491,1.491,0,0,0-.654-1.076l-8.281-5.52V29.377l3.7,2.223a1.479,1.479,0,0,0,.953.2l9.36-1.169a4.42,4.42,0,1,0-1.173-8.761l-6.453.922-6.95-5.56a1.491,1.491,0,0,0-.932-.325H43.5a5.9,5.9,0,0,0,.829-2.981V3.491A1.491,1.491,0,0,0,42.833,2H39.852A7.463,7.463,0,0,0,32.4,9.454v4.472a5.9,5.9,0,0,0,.829,2.981H32.4a1.342,1.342,0,0,0-.244.021l-8.944,1.491a1.491,1.491,0,0,0-1.152.947Zm-.094,28.847a4.481,4.481,0,0,1-2.981,4.217v-7.2h2.981ZM52.928,49.7h-2.87L48.775,42a1.491,1.491,0,0,0-.8-1.088l-5.963-2.981a1.491,1.491,0,0,0-2,.668l-4.1,8.209-10.961,1.1V44.933l6.245-1.207a1.491,1.491,0,0,0,1.193-1.218L33.661,34.8H43.877l7.992,5.328ZM39.852,4.981h1.491V7.963H35.634a4.481,4.481,0,0,1,4.217-2.981ZM35.38,13.926V10.944h5.963v2.981a2.981,2.981,0,0,1-5.963,0Z" transform="translate(6.87 0)" fill="#f21d1d"/>
    <path id="Path_418" data-name="Path 418" d="M26.907,40a4.472,4.472,0,0,0-4.2,2.981H13.491a1.491,1.491,0,1,0,0,2.981h9.219a4.445,4.445,0,0,0,8.4,0H73.12a1.491,1.491,0,1,0,0-2.981H31.105A4.472,4.472,0,0,0,26.907,40Zm0,5.963A1.491,1.491,0,1,1,28.4,44.472,1.491,1.491,0,0,1,26.907,45.963Z" transform="translate(4.907 14.839)" fill="#f21d1d"/>
    <path id="Path_419" data-name="Path 419" d="M59.454,47.833a1.491,1.491,0,0,0,1.491-1.491V22.491A1.491,1.491,0,0,0,59.454,21H53.491A1.491,1.491,0,0,0,52,22.491V46.342a1.491,1.491,0,0,0,1.491,1.491ZM54.981,35.907h2.981v2.981H54.981Zm2.981-2.981H54.981V29.944h2.981Zm0,11.926H54.981V41.87h2.981Zm-2.981-20.87h2.981v2.981H54.981Z" transform="translate(24.537 6.876)" fill="#f21d1d"/>
    <path id="Path_420" data-name="Path 420" d="M7.491,21.981h5.963a1.491,1.491,0,1,0,0-2.981H7.491a1.491,1.491,0,1,0,0,2.981Z" transform="translate(1.963 6.756)" fill="#f21d1d"/>
    <path id="Path_421" data-name="Path 421" d="M7.491,25.981h5.963a1.491,1.491,0,0,0,0-2.981H7.491a1.491,1.491,0,0,0,0,2.981Z" transform="translate(1.963 8.346)" fill="#f21d1d"/>
    <path id="Path_422" data-name="Path 422" d="M14.944,28.491A1.491,1.491,0,0,0,13.454,27H7.491a1.491,1.491,0,1,0,0,2.981h5.963A1.491,1.491,0,0,0,14.944,28.491Z" transform="translate(1.963 9.935)" fill="#f21d1d"/>
    <path id="Path_423" data-name="Path 423" d="M13.454,32.491A1.491,1.491,0,0,0,11.963,31H7.491a1.491,1.491,0,1,0,0,2.981h4.472A1.491,1.491,0,0,0,13.454,32.491Z" transform="translate(1.963 11.525)" fill="#f21d1d"/>
    <path id="Path_424" data-name="Path 424" d="M7.491,35a1.491,1.491,0,1,0,0,2.981h2.981a1.491,1.491,0,1,0,0-2.981Z" transform="translate(1.963 13.115)" fill="#f21d1d"/>
  </g>
</svg>
