<svg xmlns="http://www.w3.org/2000/svg" width="80.6" height="93" viewBox="0 0 80.6 93">
  <g id="attendance" transform="translate(-48 -16)">
    <path id="Path_484" data-name="Path 484" d="M128.561,55.765l-3.1-13.756A1.55,1.55,0,0,0,123.95,40.8h-12.4V17.55A1.55,1.55,0,0,0,110,16H66.6a1.55,1.55,0,0,0-1.55,1.55V40.8H52.65a1.55,1.55,0,0,0-1.511,1.209l-3.1,13.756a1.54,1.54,0,0,0-.039.341V101.25a1.55,1.55,0,0,0,1.55,1.55H51.1v4.65A1.55,1.55,0,0,0,52.65,109h71.3a1.55,1.55,0,0,0,1.55-1.55V102.8h1.55a1.55,1.55,0,0,0,1.55-1.55V56.106A1.54,1.54,0,0,0,128.561,55.765ZM68.15,19.1h40.3V40.8H68.15Zm54.25,86.8H54.2v-3.1h68.2Zm3.1-6.2H51.1V56.279L53.89,43.9h68.82l2.79,12.379Z" transform="translate(0)" fill="#f21d1d"/>
    <path id="Path_485" data-name="Path 485" d="M152.8,176a24.8,24.8,0,1,0,24.8,24.8A24.8,24.8,0,0,0,152.8,176Zm12.161,42.763-1.519-2.63-2.685,1.55,1.521,2.635a21.536,21.536,0,0,1-7.929,2.126V219.4h-3.1v3.044a21.537,21.537,0,0,1-7.929-2.127l1.521-2.635-2.685-1.55-1.519,2.63a21.876,21.876,0,0,1-5.8-5.8l2.63-1.519-1.55-2.685-2.635,1.521a21.537,21.537,0,0,1-2.126-7.928H134.2v-3.1h-3.044a21.536,21.536,0,0,1,2.127-7.929l2.635,1.521,1.55-2.685-2.63-1.519a21.877,21.877,0,0,1,5.8-5.8l1.519,2.63,2.685-1.55-1.521-2.635a21.537,21.537,0,0,1,7.928-2.126V182.2h3.1v-3.044a21.536,21.536,0,0,1,7.929,2.127l-1.521,2.635,2.685,1.55,1.519-2.63a21.877,21.877,0,0,1,5.8,5.8l-2.63,1.519,1.55,2.685,2.635-1.521a21.537,21.537,0,0,1,2.126,7.928H171.4v3.1h3.044a21.536,21.536,0,0,1-2.127,7.929l-2.635-1.521-1.55,2.685,2.63,1.519A21.875,21.875,0,0,1,164.961,218.763Z" transform="translate(-64.5 -129)" fill="#f21d1d"/>
    <path id="Path_486" data-name="Path 486" d="M206.031,238.628l-10.085,5.929,1.571,2.672,10.85-6.378a1.55,1.55,0,0,0,.765-1.337V224h-3.1Z" transform="translate(-119.281 -167.7)" fill="#f21d1d"/>
    <path id="Path_487" data-name="Path 487" d="M97.3,180.65a4.65,4.65,0,1,0-4.65,4.65A4.65,4.65,0,0,0,97.3,180.65Zm-4.65,1.55a1.55,1.55,0,1,1,1.55-1.55A1.55,1.55,0,0,1,92.65,182.2Z" transform="translate(-32.25 -129)" fill="#f21d1d"/>
    <path id="Path_488" data-name="Path 488" d="M184,80h6.2v3.1H184Z" transform="translate(-109.65 -51.6)" fill="#f21d1d"/>
    <path id="Path_489" data-name="Path 489" d="M184,112h6.2v3.1H184Z" transform="translate(-109.65 -77.4)" fill="#f21d1d"/>
    <path id="Path_490" data-name="Path 490" d="M240,80h17.05v3.1H240Z" transform="translate(-154.8 -51.6)" fill="#f21d1d"/>
    <path id="Path_491" data-name="Path 491" d="M184,48h6.2v3.1H184Z" transform="translate(-109.65 -25.8)" fill="#f21d1d"/>
    <path id="Path_492" data-name="Path 492" d="M240,48h17.05v3.1H240Z" transform="translate(-154.8 -25.8)" fill="#f21d1d"/>
    <path id="Path_493" data-name="Path 493" d="M240,112h17.05v3.1H240Z" transform="translate(-154.8 -77.4)" fill="#f21d1d"/>
  </g>
</svg>
