<svg xmlns="http://www.w3.org/2000/svg" width="49" height="43.01" viewBox="0 0 49 43.01">
  <path id="Coffee.svg" d="M1275.38,5951.8a.076.076,0,0,1-.04-.01,16.8,16.8,0,0,1-4.33,5.54h10.91a.811.811,0,0,1,.77.54.788.788,0,0,1-.28.891c-.3.21-7.37,5.23-22.54,5.23a51.766,51.766,0,0,1-16.96-2.559c-.06-.021-5.91-2.111-5.91-3.311a.811.811,0,0,1,.82-.79h10.9c-4.42-3.65-6.82-9.71-6.82-17.38a.8.8,0,0,1,.82-.79h10.61v-.79a.821.821,0,0,1,1.64,0v.79h22.05a.8.8,0,0,1,.81.79c0,.54-.01,1.06-.03,1.58h7.38a.8.8,0,0,1,.82.79C1286,5947.73,1281.44,5951.8,1275.38,5951.8Zm-34.51,7.11c3.15,1.44,9.34,3.5,19,3.5,9.44,0,15.67-2.04,18.9-3.5Zm11.65-15.01v4.35h3.26v-4.35Zm2.45-3.16v1.58h1.63a.8.8,0,0,1,.82.79v5.93a.811.811,0,0,1-.82.791h-4.9a.811.811,0,0,1-.82-.79v-5.93a.8.8,0,0,1,.82-.79h1.63v-1.58h-9.79c.18,7.74,2.98,13.61,7.93,16.59h16.79c4.96-2.98,7.75-8.85,7.93-16.59h-21.22Zm22.72,2.37a25.5,25.5,0,0,1-1.63,7.09c4.56-.26,7.88-3.12,8.27-7.09Zm-8.93-10.13a2,2,0,0,0,.62,1.45.773.773,0,0,1,0,1.12.834.834,0,0,1-1.15,0,3.542,3.542,0,0,1,0-5.149,2,2,0,0,0,.62-1.451,2.029,2.029,0,0,0-.62-1.46.763.763,0,0,1,0-1.109.827.827,0,0,1,1.15,0,3.552,3.552,0,0,1,0,5.141,2.028,2.028,0,0,0-.62,1.459Zm-9.33-3.07a2.96,2.96,0,0,0,.92,2.15.773.773,0,0,1,0,1.12.845.845,0,0,1-1.16,0,4.519,4.519,0,0,1,0-6.54,2.972,2.972,0,0,0,0-4.3.773.773,0,0,1,0-1.12.84.84,0,0,1,1.16,0,4.519,4.519,0,0,1,0,6.54,2.943,2.943,0,0,0-.92,2.15Zm-8.64,3.07a2,2,0,0,0,.62,1.45.773.773,0,0,1,0,1.12.81.81,0,0,1-.57.23.852.852,0,0,1-.58-.23,3.564,3.564,0,0,1,0-5.149,2,2,0,0,0,.62-1.451,2.029,2.029,0,0,0-.62-1.46.762.762,0,0,1,0-1.109.827.827,0,0,1,1.15,0,3.53,3.53,0,0,1,0,5.14,2.029,2.029,0,0,0-.62,1.459Z" transform="translate(-1237 -5920.988)" fill="#fff" fill-rule="evenodd"/>
</svg>
