<?xml version="1.0" encoding="utf-8"?>
<svg width="24px" height="24px" viewbox="0 0 24 24" version="1.1" xmlns:xlink="http://www.w3.org/1999/xlink" xmlns="http://www.w3.org/2000/svg">
  <g id="particulierHeaderfontsizeinactive">
    <g id="Group-11">
      <path d="M12 24C5.37419 24 0 18.6258 0 12C0 5.37419 5.37419 0 12 0C18.6258 0 24 5.37419 24 12C24 18.6258 18.6258 24 12 24Z" id="Icon-Path" fill="#0C5CA8" fill-rule="evenodd" stroke="none" />
      <g id="fxemoji-decreasefontsize" transform="translate(3.2727273 3.2727273)">
        <g id="Icon" transform="translate(0 1.0909091)">
          <path d="M7.7354 8.64557L5.90488 8.64557C5.80155 8.64558 5.71179 8.57789 5.68816 8.48212L5.31014 6.95017C5.28651 6.85441 5.19675 6.78672 5.09341 6.78672L2.81196 6.78672C2.70862 6.78672 2.61886 6.85441 2.59523 6.95017L2.21721 8.48212C2.19358 8.57789 2.10383 8.64558 2.00049 8.64557L0.222768 8.64557C0.0733795 8.64557 -0.0335957 8.50827 0.00971004 8.3722L2.627 0.150451C2.65545 0.061097 2.74197 -5.8925e-06 2.84006 0L5.13064 0C5.22882 0 5.31543 0.0612378 5.34376 0.150734L7.94855 8.37249C7.99163 8.50849 7.88465 8.64557 7.7354 8.64557L7.7354 8.64557ZM4.82488 5.02889L4.16429 2.37386C4.11011 2.15607 3.78435 2.15657 3.73087 2.37449L3.07946 5.02952C3.04683 5.16244 3.15285 5.28964 3.29626 5.28964L4.60826 5.28964C4.75192 5.28964 4.85797 5.162 4.82488 5.02889L4.82488 5.02889Z" transform="translate(9.0005045 3.9481049)" id="Icon-Shape" fill="#FFFFFF" stroke="none" />
          <path d="M10.823 12.0964L8.2618 12.0964C8.11721 12.0964 7.99163 12.0017 7.95856 11.8677L7.42963 9.72428C7.39656 9.59029 7.27098 9.49557 7.12639 9.49557L3.93429 9.49557C3.7897 9.49557 3.66412 9.59029 3.63105 9.72428L3.10213 11.8677C3.06906 12.0017 2.94348 12.0964 2.79889 12.0964L0.311682 12.0964C0.102657 12.0964 -0.0470286 11.9044 0.0135995 11.7139L3.67555 0.210524C3.71534 0.085503 3.8364 3.05292e-06 3.97363 0L7.17849 0C7.31588 -2.12112e-06 7.43704 0.0856865 7.47671 0.210902L11.1212 11.7143C11.1815 11.9046 11.0318 12.0964 10.823 12.0964ZM6.75069 7.03617L5.82643 3.32141C5.75062 3.0167 5.29482 3.01739 5.22001 3.32232L4.30861 7.03709C4.26299 7.22307 4.41129 7.40102 4.61191 7.40102L6.44758 7.40102C6.64864 7.40099 6.79704 7.22241 6.75069 7.03617L6.75069 7.03617Z" transform="translate(0.00990468 0.49723426)" id="Icon-Shape" fill="#FFFFFF" stroke="none" />
        </g>
        <path d="M0 0L16.3636 0L16.3636 16.3636L0 16.3636L0 0Z" id="ViewBox" fill="none" fill-rule="evenodd" stroke="none" />
      </g>
    </g>
  </g>
</svg>