<svg id="E-commerce" xmlns="http://www.w3.org/2000/svg" width="92" height="92.001" viewBox="0 0 92 92.001">
  <path id="Path_384" data-name="Path 384" d="M89.4,21.934H86.333V20.4h1.533a4.6,4.6,0,1,0,0-9.2H86.333V3.534A1.484,1.484,0,0,0,85.7,2.307a1.52,1.52,0,0,0-1.349-.245L64.637,8.134h-10.5A1.533,1.533,0,0,0,52.6,9.667V11.2H49.533A1.533,1.533,0,0,0,48,12.734v6.133A1.533,1.533,0,0,0,49.533,20.4H52.6v1.533H43.4V8.134A1.533,1.533,0,0,0,41.867,6.6H11.2A1.533,1.533,0,0,0,9.667,8.134v13.8H6.6a4.614,4.614,0,0,0-4.6,4.6V75.6a4.614,4.614,0,0,0,4.6,4.6H41.867v4.6h-9.2a1.533,1.533,0,0,0-1.533,1.533v6.133A1.533,1.533,0,0,0,32.667,94H63.333a1.533,1.533,0,0,0,1.533-1.533V86.334A1.533,1.533,0,0,0,63.333,84.8h-9.2V80.2H89.4A4.614,4.614,0,0,0,94,75.6V26.534a4.614,4.614,0,0,0-4.6-4.6Zm-3.067-7.667h1.533a1.533,1.533,0,1,1,0,3.067H86.333ZM66.4,10.8,83.267,5.6V26L66.4,20.8Zm-10.733.4h7.667v9.2H55.667Zm4.37,12.267-1.1,7.667H57.2V23.467Zm-8.97-6.133V14.267H52.6v3.067ZM12.733,9.667h27.6V31.134h-27.6ZM61.8,87.867v3.067H34.2V87.867ZM44.933,84.8V80.2h6.133v4.6Zm46-9.2A1.533,1.533,0,0,1,89.4,77.134H6.6A1.533,1.533,0,0,1,5.067,75.6V74.067H90.933Zm0-4.6H5.067V26.534A1.533,1.533,0,0,1,6.6,25H9.667v7.667A1.533,1.533,0,0,0,11.2,34.2H41.867A1.533,1.533,0,0,0,43.4,32.667V25H54.133v7.667A1.533,1.533,0,0,0,55.667,34.2h4.6a1.533,1.533,0,0,0,1.518-1.318l1.349-9.415h1.5l19.719,6.072a1.418,1.418,0,0,0,.445.061,1.556,1.556,0,0,0,1.533-1.533V25H89.4a1.533,1.533,0,0,1,1.533,1.533Z" transform="translate(-2 -1.999)" fill="#fff"/>
  <path id="Path_385" data-name="Path 385" d="M7.533,54.6H47.4a1.533,1.533,0,0,0,1.533-1.533V28.533A1.533,1.533,0,0,0,47.4,27H7.533A1.533,1.533,0,0,0,6,28.533V53.067A1.533,1.533,0,0,0,7.533,54.6Zm1.533-3.067V31.276l17.6,10.83a1.533,1.533,0,0,0,1.607,0l17.6-10.83V51.533Zm3.884-21.467H41.983L27.467,39Z" transform="translate(0.133 11.335)" fill="#fff"/>
  <path id="Path_386" data-name="Path 386" d="M37.533,46.467H40.6v4.6A1.533,1.533,0,0,0,42.133,52.6H68.2a1.533,1.533,0,0,0,1.533-1.533v-18.4A1.533,1.533,0,0,0,68.2,31.133H66.667v-4.6A1.533,1.533,0,0,0,65.133,25h-27.6A1.533,1.533,0,0,0,36,26.533v18.4A1.533,1.533,0,0,0,37.533,46.467Zm29.133,3.067h-23V34.2h23Zm-27.6-21.467H63.6v3.067H42.133A1.533,1.533,0,0,0,40.6,32.667V43.4H39.067Z" transform="translate(16.133 10.268)" fill="#fff"/>
  <path id="Path_387" data-name="Path 387" d="M43,33h3.067v3.067H43Z" transform="translate(19.867 14.535)" fill="#fff"/>
  <path id="Path_388" data-name="Path 388" d="M47,33H57.733v3.067H47Z" transform="translate(22 14.535)" fill="#fff"/>
  <path id="Path_389" data-name="Path 389" d="M43,37h6.133v3.067H43Z" transform="translate(19.867 16.668)" fill="#fff"/>
  <path id="Path_390" data-name="Path 390" d="M49,37h7.667v3.067H49Z" transform="translate(23.066 16.668)" fill="#fff"/>
  <path id="Path_391" data-name="Path 391" d="M15.727,22.038a1.533,1.533,0,0,0,1.492.067l9.2-4.6a1.533,1.533,0,0,0,0-2.745l-9.2-4.6A1.533,1.533,0,0,0,15,11.534v9.2A1.533,1.533,0,0,0,15.727,22.038Zm2.34-8.024L22.3,16.134l-4.238,2.119Z" transform="translate(4.934 2.268)" fill="#fff"/>
</svg>
