<svg xmlns="http://www.w3.org/2000/svg" width="48" height="38.01" viewBox="0 0 48 38.01">
  <path id="Customer.svg" d="M675.614,5933a3.756,3.756,0,1,1-3.832,3.75,3.794,3.794,0,0,1,3.832-3.75Zm0,6a2.251,2.251,0,1,0-2.3-2.25,2.278,2.278,0,0,0,2.3,2.25Zm0,4.51a4.809,4.809,0,0,0-2.538.709.775.775,0,0,1-1.055-.239.737.737,0,0,1,.243-1.031,6.362,6.362,0,0,1,3.35-.939,6.26,6.26,0,0,1,6.322,6.189.761.761,0,0,1-.766.75h-8.486a.75.75,0,0,1,0-1.5h7.659a4.769,4.769,0,0,0-4.729-3.94Zm7.741,8.44h-5.192l-1.864,3.65a.769.769,0,0,1-1.37,0l-1.865-3.65h-.38a.75.75,0,0,1,0-1.5h.854a.772.772,0,0,1,.685.41l1.391,2.73,1.39-2.73a.772.772,0,0,1,.685-.41h5.666a.112.112,0,0,0,.113-.11v-18.73a.112.112,0,0,0-.113-.11H667.872a.111.111,0,0,0-.113.109v8.13a.766.766,0,1,1-1.532,0v-8.13a1.628,1.628,0,0,1,1.645-1.61h15.483a1.628,1.628,0,0,1,1.645,1.61v18.73a1.628,1.628,0,0,1-1.645,1.61Zm-14.614-9.96a1.628,1.628,0,0,1,1.645,1.61v18.73a1.628,1.628,0,0,1-1.645,1.609h-5.192l-1.864,3.66a.777.777,0,0,1-1.37,0l-1.864-3.66h-5.193a1.627,1.627,0,0,1-1.644-1.61V5943.6a1.627,1.627,0,0,1,1.644-1.61h15.483Zm-15.6,1.61v18.73a.112.112,0,0,0,.113.109h5.665a.76.76,0,0,1,.685.419l1.391,2.721,1.391-2.72a.76.76,0,0,1,.685-.42h5.665a.113.113,0,0,0,.113-.11V5943.6a.112.112,0,0,0-.113-.11H653.259a.111.111,0,0,0-.113.109ZM661,5954a6.266,6.266,0,0,1,6.322,6.19.754.754,0,0,1-.766.75H655.443a.753.753,0,0,1-.766-.75A6.267,6.267,0,0,1,661,5954Zm4.729,5.44a4.808,4.808,0,0,0-9.458,0ZM661,5952.5a3.756,3.756,0,1,1,3.832-3.75A3.794,3.794,0,0,1,661,5952.5Zm0-6.01a2.255,2.255,0,1,0,2.3,2.259,2.281,2.281,0,0,0-2.3-2.259Zm-14.614-5.98a3.756,3.756,0,1,1,3.832-3.76,3.8,3.8,0,0,1-3.832,3.759Zm0-6.01a2.251,2.251,0,1,0,2.3,2.25,2.278,2.278,0,0,0-2.3-2.25Zm3.7,13.7a.761.761,0,0,1-.766.75h-8.49a.761.761,0,0,1-.766-.75,6.26,6.26,0,0,1,6.322-6.19,6.353,6.353,0,0,1,3.35.94.734.734,0,0,1,.243,1.03.776.776,0,0,1-1.055.24,4.829,4.829,0,0,0-7.267,3.229h7.659a.754.754,0,0,1,.766.75Zm4.925-7.71a.754.754,0,0,1-.766-.75v-8.13a.112.112,0,0,0-.113-.11H638.645a.111.111,0,0,0-.113.109v18.73a.112.112,0,0,0,.113.11h5.665a.772.772,0,0,1,.686.41l1.39,2.73,1.391-2.73a.772.772,0,0,1,.685-.41h.854a.75.75,0,0,1,0,1.5h-.381l-1.864,3.65a.769.769,0,0,1-1.37,0l-1.864-3.65h-5.192a1.628,1.628,0,0,1-1.645-1.61v-18.73a1.628,1.628,0,0,1,1.645-1.61h15.483a1.627,1.627,0,0,1,1.645,1.61v8.13a.754.754,0,0,1-.766.75Z" transform="translate(-637 -5930)" fill="#fff" fill-rule="evenodd"/>
</svg>
